<svg xmlns="http://www.w3.org/2000/svg" width="1200" height="630" viewBox="0 0 1200 630"><defs>
      <linearGradient id="bg" x1="0" y1="0" x2="1" y2="1">
        <stop offset="0" stop-color="#002244"/>
        <stop offset="0.55" stop-color="#003366"/>
        <stop offset="1" stop-color="#002244"/>
      </linearGradient>
      <radialGradient id="glow" cx="0.78" cy="0.22" r="0.6">
        <stop offset="0" stop-color="#004a99" stop-opacity="0.55"/>
        <stop offset="1" stop-color="#004a99" stop-opacity="0"/>
      </radialGradient>
    </defs><rect width="1200" height="630" fill="url(#bg)"/><rect width="1200" height="630" fill="url(#glow)"/><circle cx="1120" cy="90" r="150" fill="none" stroke="#ffffff" stroke-width="10" opacity="0.06"/><path d="M 1085 30 L 1085 150 L 1185 90 Z" fill="#ffffff" opacity="0.05"/><circle cx="70" cy="560" r="130" fill="none" stroke="#ffffff" stroke-width="9" opacity="0.05"/><rect x="70" y="520" width="70" height="26" rx="13.0" fill="#ffffff" opacity="0.09"/><rect x="156" y="520" width="120" height="26" rx="13.0" fill="#ffffff" opacity="0.06"/><rect x="292" y="520" width="54" height="26" rx="13.0" fill="#ffffff" opacity="0.09"/><rect x="362" y="520" width="150" height="26" rx="13.0" fill="#ffffff" opacity="0.06"/><rect x="528" y="520" width="90" height="26" rx="13.0" fill="#ffffff" opacity="0.09"/><rect x="634" y="520" width="64" height="26" rx="13.0" fill="#ffffff" opacity="0.06"/><rect x="714" y="520" width="110" height="26" rx="13.0" fill="#ffffff" opacity="0.09"/><rect x="840" y="520" width="140" height="26" rx="13.0" fill="#ffffff" opacity="0.06"/><rect x="996" y="520" width="80" height="26" rx="13.0" fill="#ffffff" opacity="0.09"/><rect x="470" y="500" width="4" height="66" rx="2" fill="#ffffff" opacity="0.16"/><path d="M 458 500 L 486 500 L 472 514 Z" fill="#ffffff" opacity="0.16"/><rect x="70" y="584" width="7" height="14" rx="3" fill="#ffffff" opacity="0.07"/><rect x="86" y="572" width="7" height="26" rx="3" fill="#ffffff" opacity="0.07"/><rect x="102" y="558" width="7" height="40" rx="3" fill="#ffffff" opacity="0.07"/><rect x="118" y="576" width="7" height="22" rx="3" fill="#ffffff" opacity="0.07"/><rect x="134" y="546" width="7" height="52" rx="3" fill="#ffffff" opacity="0.07"/><rect x="150" y="564" width="7" height="34" rx="3" fill="#ffffff" opacity="0.07"/><rect x="166" y="580" width="7" height="18" rx="3" fill="#ffffff" opacity="0.07"/><rect x="182" y="554" width="7" height="44" rx="3" fill="#ffffff" opacity="0.07"/><rect x="198" y="538" width="7" height="60" rx="3" fill="#ffffff" opacity="0.07"/><rect x="214" y="568" width="7" height="30" rx="3" fill="#ffffff" opacity="0.07"/><rect x="230" y="578" width="7" height="20" rx="3" fill="#ffffff" opacity="0.07"/><rect x="246" y="550" width="7" height="48" rx="3" fill="#ffffff" opacity="0.07"/><rect x="262" y="562" width="7" height="36" rx="3" fill="#ffffff" opacity="0.07"/><rect x="278" y="574" width="7" height="24" rx="3" fill="#ffffff" opacity="0.07"/><rect x="294" y="544" width="7" height="54" rx="3" fill="#ffffff" opacity="0.07"/><rect x="310" y="558" width="7" height="40" rx="3" fill="#ffffff" opacity="0.07"/><rect x="326" y="582" width="7" height="16" rx="3" fill="#ffffff" opacity="0.07"/><rect x="342" y="568" width="7" height="30" rx="3" fill="#ffffff" opacity="0.07"/><rect x="358" y="552" width="7" height="46" rx="3" fill="#ffffff" opacity="0.07"/><rect x="374" y="576" width="7" height="22" rx="3" fill="#ffffff" opacity="0.07"/><rect x="390" y="540" width="7" height="58" rx="3" fill="#ffffff" opacity="0.07"/><rect x="406" y="564" width="7" height="34" rx="3" fill="#ffffff" opacity="0.07"/><rect x="422" y="578" width="7" height="20" rx="3" fill="#ffffff" opacity="0.07"/><rect x="438" y="556" width="7" height="42" rx="3" fill="#ffffff" opacity="0.07"/><rect x="454" y="548" width="7" height="50" rx="3" fill="#ffffff" opacity="0.07"/><rect x="470" y="570" width="7" height="28" rx="3" fill="#ffffff" opacity="0.07"/><rect x="486" y="580" width="7" height="18" rx="3" fill="#ffffff" opacity="0.07"/><rect x="502" y="560" width="7" height="38" rx="3" fill="#ffffff" opacity="0.07"/><rect x="518" y="574" width="7" height="24" rx="3" fill="#ffffff" opacity="0.07"/><rect x="534" y="554" width="7" height="44" rx="3" fill="#ffffff" opacity="0.07"/><rect x="550" y="538" width="7" height="60" rx="3" fill="#ffffff" opacity="0.07"/><rect x="566" y="566" width="7" height="32" rx="3" fill="#ffffff" opacity="0.07"/><rect x="582" y="576" width="7" height="22" rx="3" fill="#ffffff" opacity="0.07"/><rect x="598" y="550" width="7" height="48" rx="3" fill="#ffffff" opacity="0.07"/><rect x="614" y="562" width="7" height="36" rx="3" fill="#ffffff" opacity="0.07"/><rect x="630" y="582" width="7" height="16" rx="3" fill="#ffffff" opacity="0.07"/><rect x="646" y="558" width="7" height="40" rx="3" fill="#ffffff" opacity="0.07"/><rect x="662" y="572" width="7" height="26" rx="3" fill="#ffffff" opacity="0.07"/><rect x="678" y="546" width="7" height="52" rx="3" fill="#ffffff" opacity="0.07"/><rect x="694" y="568" width="7" height="30" rx="3" fill="#ffffff" opacity="0.07"/><rect x="710" y="578" width="7" height="20" rx="3" fill="#ffffff" opacity="0.07"/><rect x="726" y="552" width="7" height="46" rx="3" fill="#ffffff" opacity="0.07"/><rect x="742" y="564" width="7" height="34" rx="3" fill="#ffffff" opacity="0.07"/><rect x="758" y="540" width="7" height="58" rx="3" fill="#ffffff" opacity="0.07"/><rect x="774" y="574" width="7" height="24" rx="3" fill="#ffffff" opacity="0.07"/><rect x="790" y="556" width="7" height="42" rx="3" fill="#ffffff" opacity="0.07"/><rect x="806" y="580" width="7" height="18" rx="3" fill="#ffffff" opacity="0.07"/><rect x="822" y="548" width="7" height="50" rx="3" fill="#ffffff" opacity="0.07"/><rect x="838" y="570" width="7" height="28" rx="3" fill="#ffffff" opacity="0.07"/><rect x="854" y="560" width="7" height="38" rx="3" fill="#ffffff" opacity="0.07"/><rect x="870" y="538" width="7" height="60" rx="3" fill="#ffffff" opacity="0.07"/><rect x="886" y="576" width="7" height="22" rx="3" fill="#ffffff" opacity="0.07"/><rect x="902" y="554" width="7" height="44" rx="3" fill="#ffffff" opacity="0.07"/><rect x="918" y="566" width="7" height="32" rx="3" fill="#ffffff" opacity="0.07"/><rect x="934" y="582" width="7" height="16" rx="3" fill="#ffffff" opacity="0.07"/><rect x="950" y="550" width="7" height="48" rx="3" fill="#ffffff" opacity="0.07"/><rect x="966" y="572" width="7" height="26" rx="3" fill="#ffffff" opacity="0.07"/><rect x="982" y="544" width="7" height="54" rx="3" fill="#ffffff" opacity="0.07"/><rect x="998" y="562" width="7" height="36" rx="3" fill="#ffffff" opacity="0.07"/><rect x="1014" y="578" width="7" height="20" rx="3" fill="#ffffff" opacity="0.07"/><rect x="1030" y="558" width="7" height="40" rx="3" fill="#ffffff" opacity="0.07"/><rect x="1046" y="574" width="7" height="24" rx="3" fill="#ffffff" opacity="0.07"/><rect x="1062" y="546" width="7" height="52" rx="3" fill="#ffffff" opacity="0.07"/><rect x="1078" y="568" width="7" height="30" rx="3" fill="#ffffff" opacity="0.07"/><rect x="150" y="120" width="46" height="30" rx="6" fill="none" stroke="#ffffff" stroke-width="4" opacity="0.05"/><rect x="1010" y="470" width="54" height="34" rx="6" fill="none" stroke="#ffffff" stroke-width="4" opacity="0.05"/><g transform="translate(64,48) scale(0.1172)"><path d="M 382.4 149.9 A 165 165 0 1 0 382.4 362.1" fill="none" stroke="#ffffff" stroke-width="72" stroke-linecap="round"/><path d="M 232.9 201.6 L 232.9 310.4 L 331.9 256.0 Z" fill="#ffffff"/></g><text x="140" y="92" font-family="Inter ExtraBold, Inter" font-weight="800" font-size="44" fill="#ffffff" text-anchor="start">Clipame</text><text x="600.0" y="300" font-family="Inter SemiBold, Inter" font-weight="600" font-size="46" fill="#cdd9e8" text-anchor="middle" letter-spacing="8">THE CLIPPING INDUSTRY</text><text x="600.0" y="410" font-family="Inter Black, Inter" font-weight="900" font-size="132" fill="#ffffff" text-anchor="middle" letter-spacing="2">DIRECTORY</text><text x="600.0" y="470" font-family="Inter SemiBold, Inter" font-weight="600" font-size="26" fill="#ffffff" text-anchor="middle" letter-spacing="4" opacity="0.72">clipame.com</text></svg>